<svg xmlns="http://www.w3.org/2000/svg" viewBox="0 0 40 36.7"><defs><style>.cls-1{fill:#3e55ff;}</style></defs><title>heart_before0</title><g id="Layer_2" data-name="Layer 2"><g id="Layer_1-2" data-name="Layer 1"><path class="cls-1" d="M29,0a12,12,0,0,0-9,4.18A12,12,0,0,0,11,0,10.89,10.89,0,0,0,0,11c0,7.56,6.8,13.72,17.1,23.08L20,36.7l2.9-2.64C33.2,24.72,40,18.56,40,11A10.89,10.89,0,0,0,29,0ZM20.2,31.1l-.2.2-.2-.2C10.28,22.48,4,16.78,4,11a6.84,6.84,0,0,1,7-7,7.82,7.82,0,0,1,7.14,4.72h3.74A7.77,7.77,0,0,1,29,4a6.84,6.84,0,0,1,7,7C36,16.78,29.72,22.48,20.2,31.1Z"/></g></g></svg>