<svg xmlns="http://www.w3.org/2000/svg" viewBox="0 0 279.63 323.21"><defs><style>.cls-1{fill:#3e55ff;}.cls-2{fill:#aa9935;}.cls-3{fill:#c6b220;}.cls-4{fill:#ffef29;}.cls-5,.cls-6{fill:#fff;}.cls-6{font-size:54.63px;stroke:#fff;stroke-miterlimit:10;stroke-width:3px;font-family:MyriadPro-Regular, Myriad Pro;}</style></defs><title>sae0</title><g id="Layer_2" data-name="Layer 2"><g id="Layer_1-2" data-name="Layer 1"><path class="cls-1" d="M278.83,267.5c-5.59,13.22-39.63,11.21-52.86,5.62a26,26,0,1,1,20.24-47.9C259.44,230.81,284.42,254.27,278.83,267.5Z"/><path class="cls-2" d="M85.05,287.79h17.75a0,0,0,0,1,0,0V313a8.88,8.88,0,0,1-8.88,8.88h0A8.88,8.88,0,0,1,85.05,313V287.79a0,0,0,0,1,0,0Z" transform="translate(398.78 210.92) rotate(90)"/><path class="cls-3" d="M86.32,292.83h17.75a0,0,0,0,1,0,0v23.49a8.88,8.88,0,0,1-8.88,8.88h0a8.88,8.88,0,0,1-8.88-8.88V292.83A0,0,0,0,1,86.32,292.83Z" transform="translate(404.22 213.81) rotate(90)"/><rect class="cls-4" x="109.61" y="265.49" width="17.75" height="43.53"/><path class="cls-4" d="M96.72,292.57H112a2.45,2.45,0,0,1,2.45,2.45v32.2a8.88,8.88,0,0,1-8.88,8.88h0a8.88,8.88,0,0,1-8.88-8.88V292.57a0,0,0,0,1,0,0Z" transform="translate(419.93 208.73) rotate(90)"/><path class="cls-2" d="M139.89,287.79h17.75a0,0,0,0,1,0,0V313a8.88,8.88,0,0,1-8.88,8.88h0a8.88,8.88,0,0,1-8.88-8.88V287.79A0,0,0,0,1,139.89,287.79Z" transform="translate(453.61 156.09) rotate(90)"/><path class="cls-3" d="M141.16,292.83h17.75a0,0,0,0,1,0,0v23.49A8.88,8.88,0,0,1,150,325.2h0a8.88,8.88,0,0,1-8.88-8.88V292.83A0,0,0,0,1,141.16,292.83Z" transform="translate(459.05 158.98) rotate(90)"/><rect class="cls-4" x="164.44" y="265.49" width="17.75" height="43.53"/><path class="cls-4" d="M151.55,292.57h15.3a2.45,2.45,0,0,1,2.45,2.45v32.2a8.88,8.88,0,0,1-8.88,8.88h0a8.88,8.88,0,0,1-8.88-8.88V292.57A0,0,0,0,1,151.55,292.57Z" transform="translate(474.76 153.9) rotate(90)"/><path class="cls-1" d="M95.87,281.49A64.25,64.25,0,0,1,31.7,217.32V108A64.25,64.25,0,0,1,95.87,43.82c79.86,0,144.83,65,144.83,144.84v28.66a64.24,64.24,0,0,1-64.17,64.17Z"/><path class="cls-5" d="M95.87,50.32A138.34,138.34,0,0,1,234.2,188.66v28.66A57.67,57.67,0,0,1,176.53,275H95.87A57.67,57.67,0,0,1,38.2,217.32V108A57.67,57.67,0,0,1,95.87,50.32h0m0-13A70.75,70.75,0,0,0,25.2,108V217.32A70.75,70.75,0,0,0,95.87,288h80.66a70.75,70.75,0,0,0,70.67-70.67V188.66A151.34,151.34,0,0,0,95.87,37.32Z"/><path class="cls-1" d="M41.47,166.57a35,35,0,0,1-35-35V41.47a35,35,0,0,1,35-35H131.6a35,35,0,0,1,35,35V131.6a35,35,0,0,1-35,35ZM118.8,63.49a13.1,13.1,0,1,0,11.1,6.13A13.06,13.06,0,0,0,118.8,63.49Z"/><path class="cls-5" d="M131.6,13a28.47,28.47,0,0,1,28.47,28.47V131.6a28.47,28.47,0,0,1-28.47,28.47H41.47A28.47,28.47,0,0,1,13,131.6V41.47A28.47,28.47,0,0,1,41.47,13H131.6M118.84,96.17A19.59,19.59,0,1,0,102.23,87a19.47,19.47,0,0,0,16.61,9.17M131.6,0H41.47A41.51,41.51,0,0,0,0,41.47V131.6a41.51,41.51,0,0,0,41.47,41.47H131.6a41.51,41.51,0,0,0,41.47-41.47V41.47A41.51,41.51,0,0,0,131.6,0ZM118.84,83.17A6.59,6.59,0,0,1,115.32,71a6.44,6.44,0,0,1,3.48-1,6.59,6.59,0,0,1,3.52,12.17,6.46,6.46,0,0,1-3.48,1Z"/><path class="cls-1" d="M119.27,93.22A16.73,16.73,0,1,1,136,76.49,16.76,16.76,0,0,1,119.27,93.22Z"/><path class="cls-5" d="M119.27,66.27A10.22,10.22,0,1,1,109,76.49a10.23,10.23,0,0,1,10.23-10.22m0-13a23.22,23.22,0,1,0,23.22,23.22,23.25,23.25,0,0,0-23.22-23.22Z"/><path class="cls-1" d="M131.63,12.61H41.18A28.58,28.58,0,0,0,12.61,41.19v90.44a28.58,28.58,0,0,0,28.57,28.58h90.45a28.58,28.58,0,0,0,28.57-28.58V41.19A28.58,28.58,0,0,0,131.63,12.61Zm-2.38,80.46a19.66,19.66,0,1,1,6.2-27.1A19.66,19.66,0,0,1,129.25,93.07Z"/><circle class="cls-1" cx="119.25" cy="76.33" r="10.26" transform="matrix(0.99, -0.13, 0.13, 0.99, -8.64, 15.58)"/><path class="cls-4" d="M63.13,77.47l-31,53.62a2.8,2.8,0,0,0,2.42,4.19H96.51a2.8,2.8,0,0,0,2.42-4.19L68,77.47A2.8,2.8,0,0,0,63.13,77.47Z"/><text class="cls-6" transform="translate(141.44 227.67)">U</text><text class="cls-6" transform="translate(163.69 227.67)">U</text><text class="cls-6" transform="translate(185.93 227.67)">U</text></g></g></svg>