<svg xmlns="http://www.w3.org/2000/svg" viewBox="0 0 34.23 32.73"><defs><style>.cls-1{fill:#a5a5a5;}</style></defs><title>Asset 20</title><g id="Layer_2" data-name="Layer 2"><g id="Layer_1-2" data-name="Layer 1"><path class="cls-1" d="M32.41,11l-9.68-.84L19,1.21a2,2,0,0,0-3.68,0l-3.78,8.92L1.83,11a2,2,0,0,0-1.14,3.5L8,20.82l-2.2,9.44a2,2,0,0,0,3,2.16l8.3-5,8.3,5a2,2,0,0,0,3-2.16l-2.2-9.46,7.34-6.36A2,2,0,0,0,32.41,11ZM17.11,23.67,9.59,28.21l2-8.56L5,13.89l8.76-.76,3.4-8.06,3.42,8.08,8.76.76-6.64,5.76,2,8.57Z"/></g></g></svg>